<svg width="20" height="20" viewBox="0 0 20 20" fill="none" xmlns="http://www.w3.org/2000/svg">
<path opacity="0.4" fill-rule="evenodd" clip-rule="evenodd" d="M10 17.2919C9.65482 17.2919 9.375 17.012 9.375 16.6669L9.375 3.33352C9.375 2.98834 9.65482 2.70852 10 2.70852C10.3452 2.70852 10.625 2.98834 10.625 3.33352L10.625 16.6669C10.625 17.012 10.3452 17.2919 10 17.2919Z" fill="#51AC46"/>
<path d="M10.818 17.0231C10.6012 17.1538 10.3124 17.2919 10.0011 17.2919C9.68975 17.2919 9.40094 17.1538 9.18408 17.0231C8.95007 16.882 8.70846 16.6923 8.4729 16.4842C8.00034 16.0667 7.49285 15.522 7.03379 14.9933C6.57204 14.4616 6.14686 13.9317 5.83789 13.5358C5.68314 13.3376 5.55694 13.1722 5.46918 13.056C5.42529 12.9979 5.39098 12.9521 5.36749 12.9205L5.3405 12.8842L5.33337 12.8746L5.3309 12.8713C5.12619 12.5933 5.18526 12.2017 5.46318 11.997C5.74109 11.7923 6.13232 11.8516 6.33704 12.1295L6.34489 12.1401L6.3697 12.1735C6.3917 12.203 6.4244 12.2467 6.46657 12.3025C6.55095 12.4142 6.67311 12.5743 6.82326 12.7667C7.12407 13.1521 7.53481 13.6638 7.97761 14.1738C8.4231 14.6868 8.88879 15.1837 9.30051 15.5474C9.50709 15.7299 9.68541 15.8658 9.8294 15.9526C9.92334 16.0092 9.97859 16.0301 10.001 16.0378C10.0235 16.0301 10.0788 16.0092 10.1727 15.9526C10.3167 15.8658 10.495 15.7299 10.7016 15.5474C11.1133 15.1837 11.579 14.6868 12.0245 14.1738C12.4673 13.6638 12.878 13.1521 13.1788 12.7667C13.329 12.5743 13.4511 12.4142 13.5355 12.3025C13.5777 12.2467 13.6104 12.203 13.6324 12.1735L13.6572 12.1401L13.665 12.1295C13.8698 11.8516 14.261 11.7923 14.5389 11.997C14.8168 12.2017 14.8759 12.5933 14.6712 12.8713L14.6687 12.8746L14.6616 12.8842L14.6346 12.9205C14.6111 12.9521 14.5768 12.9979 14.5329 13.056C14.4451 13.1722 14.319 13.3376 14.1642 13.5358C13.8552 13.9317 13.43 14.4616 12.9683 14.9933C12.5092 15.522 12.0018 16.0667 11.5292 16.4842C11.2936 16.6923 11.052 16.882 10.818 17.0231Z" fill="#51AC46"/>
</svg>
