<svg width="24" height="24" viewBox="0 0 24 24" fill="none" xmlns="http://www.w3.org/2000/svg">
<path opacity="0.4" d="M3.5639 10.9896C3.90429 10.1536 5.47248 8.49792 9.06055 8.49792C9.36196 8.49792 10.1526 8.19468 10.1117 6.55168C10.095 5.06667 10.6363 2.12886 12.907 2.00216C13.357 2 13.8461 2 14.3807 2C16.1798 2 17.0793 2 17.7977 2.2522C18.9527 2.65765 19.8637 3.5151 20.2945 4.60214C20.5625 5.27832 20.5625 6.12494 20.5625 7.81818V17C20.5625 17.9293 20.5625 18.394 20.4856 18.7804C20.17 20.3671 18.9296 21.6075 17.3429 21.9231C16.9565 22 16.4918 22 15.5625 22H11.2898C8.02857 22 6.39796 22 5.26557 21.2022C4.94112 20.9736 4.65308 20.7025 4.4102 20.3971C3.5625 19.3313 3.5625 17.7966 3.5625 14.7273V12.1818C3.5625 11.7548 3.5625 11.3586 3.5639 10.9896Z" fill="#DC143C"/>
<path d="M16 13.7498C16.4142 13.7498 16.75 13.414 16.75 12.9998C16.75 12.5856 16.4142 12.2498 16 12.2498H13C12.5858 12.2498 12.25 12.5856 12.25 12.9998C12.25 13.414 12.5858 13.7498 13 13.7498H16Z" fill="#DC143C"/>
<path d="M16 17.7498C16.4142 17.7498 16.75 17.414 16.75 16.9998C16.75 16.5856 16.4142 16.2498 16 16.2498L9 16.2498C8.58579 16.2498 8.25 16.5856 8.25 16.9998C8.25 17.414 8.58579 17.7498 9 17.7498H16Z" fill="#DC143C"/>
<path fill-rule="evenodd" clip-rule="evenodd" d="M12.0537 22.7499H11.1839C9.59005 22.7499 8.33489 22.7499 7.33912 22.6461C6.32238 22.5401 5.48632 22.319 4.7711 21.8151C4.3893 21.5461 4.04882 21.226 3.76073 20.8638C3.21584 20.1788 2.97549 19.3732 2.8611 18.401C2.74998 17.4566 2.74999 16.2691 2.75 14.7752V12.1544C2.75 10.696 2.75 9.5642 2.81024 8.65084C2.87131 7.72503 2.99654 6.9716 3.27169 6.2773C4.1098 4.16241 5.87464 2.51121 8.08994 1.73355C9.46881 1.24951 11.1607 1.24964 14.1261 1.24985L14.4888 1.24984C16.124 1.2495 17.143 1.24929 17.9836 1.5444C19.3327 2.01798 20.4143 3.02609 20.9293 4.32569C21.1039 4.76643 21.1789 5.23433 21.2149 5.77926C21.25 6.31184 21.25 6.96735 21.25 7.79169V14.0594C21.25 15.8945 21.25 17.3528 21.0869 18.495C20.9181 19.6761 20.562 20.6283 19.7692 21.3744C18.9829 22.1145 17.9901 22.4415 16.7576 22.5975C15.5532 22.7499 14.0117 22.7499 12.0537 22.7499ZM16.5693 21.1093C17.6514 20.9724 18.2827 20.7136 18.7412 20.2821C19.1932 19.8567 19.4594 19.2804 19.6019 18.2829C19.7482 17.259 19.75 15.908 19.75 13.9999V7.81804C19.75 6.96153 19.7496 6.35542 19.7181 5.87799C19.6871 5.40725 19.6281 5.11376 19.5348 4.87832C19.1882 4.00383 18.4477 3.29704 17.4868 2.95973C16.9195 2.76057 16.1807 2.74986 14.3182 2.74986C13.9977 2.74986 13.695 2.74997 13.4089 2.75055C12.0247 2.79896 10.9174 3.93631 10.9174 5.33228C10.9174 5.47941 10.9239 5.63759 10.9322 5.81518L10.9352 5.881C10.9425 6.0359 10.9504 6.20453 10.9539 6.37264C10.9618 6.75273 10.9498 7.19627 10.8351 7.62442C10.6116 8.45839 9.96023 9.1098 9.12626 9.33326C8.69811 9.44798 8.25457 9.45999 7.87448 9.4521C7.70636 9.4486 7.5378 9.44068 7.3829 9.4334L7.31702 9.43032C7.13942 9.42208 6.98124 9.41561 6.83411 9.41561C5.40737 9.41561 4.25078 10.5722 4.25078 11.9989C4.25078 12.0105 4.25052 12.0219 4.25 12.0333C4.25 12.0823 4.25 12.1318 4.25 12.1817V14.7271C4.25 16.28 4.25121 17.3792 4.35083 18.2258C4.44836 19.0547 4.63186 19.5494 4.93467 19.9301C5.13234 20.1786 5.36794 20.4007 5.63504 20.5889C6.05221 20.8828 6.59765 21.0607 7.49462 21.1542C8.40354 21.2489 9.58055 21.2499 11.2273 21.2499H12C14.0235 21.2499 15.47 21.2484 16.5693 21.1093ZM4.30415 8.79359C4.99977 8.24379 5.87861 7.91561 6.83411 7.91561C7.01987 7.91561 7.20948 7.92372 7.38653 7.93193L7.4544 7.9351C7.61108 7.94245 7.75857 7.94937 7.90562 7.95242C8.24626 7.95949 8.51885 7.9431 8.73803 7.88437C9.05436 7.79961 9.30145 7.55253 9.38621 7.23619C9.44494 7.01701 9.46133 6.74443 9.45425 6.40378C9.4512 6.25676 9.44429 6.10929 9.43694 5.95263L9.43377 5.8847C9.42555 5.70764 9.41744 5.51804 9.41744 5.33228C9.41744 4.3897 9.73682 3.52171 10.2732 2.83063C9.58007 2.88747 9.05581 2.98423 8.58678 3.14888C6.75964 3.79028 5.33582 5.14016 4.66618 6.82993C4.47239 7.31893 4.36316 7.89795 4.30699 8.74956C4.30603 8.76417 4.30508 8.77885 4.30415 8.79359Z" fill="#DC143C"/>
</svg>
